<?xml version="1.0" encoding="UTF-8" standalone="no"?>
<!DOCTYPE svg PUBLIC "-//W3C//DTD SVG 1.1//EN" "http://www.w3.org/Graphics/SVG/1.1/DTD/svg11.dtd">
<svg width="100%" height="100%" viewBox="0 0 365 380" version="1.1" xmlns="http://www.w3.org/2000/svg" xmlns:xlink="http://www.w3.org/1999/xlink" xml:space="preserve" xmlns:serif="http://www.serif.com/" style="fill-rule:evenodd;clip-rule:evenodd;stroke-linejoin:round;stroke-miterlimit:2;">
    <g transform="matrix(1,0,0,1,-99.8801,-65.7536)">
        <g transform="matrix(1.74658,0.217086,-0.217086,1.74658,-240.617,-404.865)">
            <g transform="matrix(1,0,0,1,39.8365,170.927)">
                <path d="M295.87,61.76C295.74,61.33 309.95,53.14 329.54,53.18C349.89,53.23 364.48,62.13 369.09,65.19C374.07,68.49 386.57,77.02 394.06,93.77C400.18,107.47 400.24,119.22 399.13,128.81C398.59,133.5 397.65,139.77 396.72,139.77C395.45,139.77 393.95,136.62 393.99,136.38C397.7,115.06 392.47,101.74 390.17,96.62C390,96.24 389.21,94.49 388.01,92.32C380.22,78.19 368.14,69.74 362.87,66.5C358.52,63.83 349.51,58.41 336.89,56.34C314.29,52.62 296,62.24 295.85,61.75L295.87,61.76Z" style="fill:white;fill-opacity:0.31;fill-rule:nonzero;"/>
            </g>
            <g transform="matrix(1,0,0,1,39.8365,170.927)">
                <path d="M391.17,158.61C391.39,159.72 388.33,166.02 387.29,167.97C384.29,173.58 381.11,179.53 374.97,186.58C371.5,190.56 367,195.64 359.63,200.23C357.25,201.71 354.24,203.56 349.84,205.06C341.4,207.94 333.22,207.68 333.2,207.45C333.2,207.38 333.23,206.57 334.65,206.63C335.06,206.65 342.32,205.94 349.54,202.67C353.27,200.98 355.76,199.55 357.7,198.23C358.94,197.39 360.36,196.34 362.26,194.73C367.31,190.43 371.1,186.06 373.02,183.74C381.01,174.07 386.49,162.64 387.7,160.21C388.36,158.89 388.98,157.4 389.58,155.97C389.58,155.97 390.57,155.57 391.18,158.61L391.17,158.61Z" style="fill:white;fill-opacity:0.31;fill-rule:nonzero;"/>
            </g>
            <g transform="matrix(1,0,0,1,39.8365,170.927)">
                <path d="M243.432,246.123C243.432,246.123 234.42,254.06 234.66,259.74C234.3,263.85 240.79,267.65 249.01,273.15C256.68,278.29 260.91,278.68 263.21,278.22C265.03,277.86 265.92,276.64 265.92,276.64C266.43,276 266.65,275.33 266.75,274.9C268.31,268.44 270.04,262.97 271.58,258.65C274.13,251.5 274.703,250.71 276.793,246.24C277.753,244.18 274.433,243.87 270.143,254.66C269.513,256.24 270.04,255.08 268.65,258.77C267.56,261.66 267.01,263.11 266.69,264.09C264.41,270.97 264.03,272.62 262.88,274.48C262.09,275.75 257.13,273.91 256.6,273.63C249.41,269.94 238.62,261.69 237.99,259.67C237.36,257.65 241.442,253.633 245.122,248.243C245.305,247.972 245.404,247.773 245.397,247.544C245.393,247.411 245.572,244.643 243.432,246.123Z" style="fill:white;fill-opacity:0.31;fill-rule:nonzero;"/>
            </g>
        </g>
        <g transform="matrix(1.3851,0,0,1.3851,-146.267,-22.7644)">
            <path d="M294.74,135.75C289.93,134.27 283.7,131.75 277.23,127.35C265.37,119.28 258.74,109.35 255.91,103.33C255.73,104.67 255.58,106.52 255.7,108.72C256.23,118.49 261.59,125.09 262.48,126.16C268.16,132.96 275.19,135.02 277.94,135.83C280.92,136.7 283.32,136.9 284.08,136.96C288.66,137.3 292.4,136.47 294.74,135.76L294.74,135.75Z" style="fill:white;fill-rule:nonzero;"/>
            <path d="M291.06,133.23C291.13,133.1 289.17,131.89 286.17,129.62C286.17,129.62 283.31,127.47 280.32,124.8C278,122.72 272.87,117.89 267.8,110.73C266.61,109.1 253.86,91.54 258.53,85.5C259.78,83.88 261.69,82.41 264.49,82.19C266.6,81.95 270.04,82.5 270.04,82.5C270.04,82.5 263.16,86.9 260.52,91.51C260.61,92.21 260.76,93.21 261.06,94.38C261.55,96.3 262.29,98.17 264.17,101.51C265.16,103.27 266.44,105.4 268.12,107.86C270.95,112 273.45,114.93 275.01,116.78C275.98,117.92 276.75,118.78 277.4,119.47C278.94,121.12 280.23,122.35 281.11,123.18C286.79,128.56 292.94,132.88 296.29,135.12C307.1,130.75 314.75,120.2 314.86,107.85L314.86,107.58C314.86,105.15 314.56,102.78 314.01,100.52C313.94,100.22 342.46,118.1 364.04,133.88C364.55,134.25 365.16,133.56 364.71,133.11C357.01,125.26 338.06,107.45 310.38,91.42C310.34,91.38 310.3,91.35 310.27,91.31C304.74,82.96 294.63,77.62 285.16,77.62C284.08,77.62 279.64,78.08 279.17,78.13L279.09,78.13C278.67,78.01 274.88,76.98 270.37,76.58C266.08,76.2 260.81,76.04 256.75,79.31C256.75,79.31 254.92,80.78 253.83,82.77C248.54,92.39 262.03,116.04 280.64,127.68C284.56,130.13 290.94,133.45 291.07,133.22L291.06,133.23Z" style="fill:white;fill-rule:nonzero;"/>
        </g>
        <g transform="matrix(1.29611,0,0,1.29611,63.7224,148.529)">
            <g transform="matrix(1,0,0,1,14.6572,-106.932)">
                <path d="M56.13,177.51C53.47,192.57 49.59,196.02 43.03,196.02C36.47,196.02 33.81,192.57 36.48,177.51C37.03,174.4 37.63,171.8 38.29,169.6C37.41,170.26 31.5,174.61 31.12,174.89C32.96,168.2 36.41,158.99 49.58,158.99C56.15,158.99 58.8,162.44 56.13,177.5L56.13,177.51ZM52.19,144.19C29.78,144.19 15.89,159.78 13.24,188.06C13.24,188.06 19.3,183.65 20.77,182.57C19.03,198.65 23.63,210.82 40.41,210.82C58.92,210.82 67.07,200.23 71.08,177.51L71.1,177.51C74.38,159 70.69,144.2 52.2,144.2L52.19,144.19Z" style="fill:white;fill-rule:nonzero;"/>
            </g>
            <g transform="matrix(1,0,0,1,14.6572,-106.932)">
                <path d="M96.58,196.97L100.79,173.09L105.32,144.31L81.94,155.89L77.74,183.83L83.92,180.96L78.69,210.58L118.9,210.48L121.31,196.87L96.58,196.97Z" style="fill:white;fill-rule:nonzero;"/>
            </g>
            <g transform="matrix(1,0,0,1,14.6572,-106.932)">
                <path d="M164.35,177.51C161.69,192.57 157.81,196.02 151.25,196.02C144.69,196.02 142.03,192.57 144.7,177.51C145.25,174.4 145.85,171.8 146.51,169.6C145.63,170.26 139.72,174.61 139.34,174.89C141.18,168.2 144.63,158.99 157.8,158.99C164.37,158.99 167.02,162.44 164.35,177.5L164.35,177.51ZM160.42,144.19C138.01,144.19 124.12,159.78 121.47,188.06C121.47,188.06 127.53,183.65 129,182.57C127.26,198.65 131.86,210.82 148.64,210.82C167.15,210.82 175.3,200.23 179.31,177.51L179.33,177.51C182.61,159 178.92,144.2 160.43,144.2L160.42,144.19Z" style="fill:white;fill-rule:nonzero;"/>
            </g>
            <g transform="matrix(1,0,0,1,14.6572,-106.932)">
                <path d="M229.53,168.54C228.38,175.06 224.48,177.07 217.96,177.07L209.52,177.07L203.35,179.94L206.87,159.95L220.97,159.95C227.49,159.95 230.71,161.82 229.52,168.53L229.53,168.54ZM223.91,146.34L193.8,146.34L186.49,187.81L192.61,184.93L188.09,210.58L203.62,210.58L207.13,190.69L216.1,190.69C233.4,190.69 241.83,182.59 244.31,168.54C246.84,154.21 241.23,146.35 223.92,146.35L223.91,146.34Z" style="fill:white;fill-rule:nonzero;"/>
            </g>
        </g>
        <g transform="matrix(1.42572,0,0,1.29611,203.707,365.024)">
            <g transform="matrix(45.16,0,0,45.16,0,0)">
                <path d="M0.138,-0.556L0.138,-0L0.324,-0L0.324,-0.556L0.464,-0.556L0.464,-0.714L0,-0.714L0,-0.556L0.138,-0.556Z" style="fill:white;fill-rule:nonzero;"/>
            </g>
            <g transform="matrix(45.16,0,0,45.16,20.8639,0)">
                <path d="M0.138,-0.556L0.138,-0L0.324,-0L0.324,-0.556L0.464,-0.556L0.464,-0.714L0,-0.714L0,-0.556L0.138,-0.556Z" style="fill:white;fill-rule:nonzero;"/>
            </g>
            <g transform="matrix(45.16,0,0,45.16,41.7278,0)">
                <path d="M0.329,-0.497L0.329,-0.457L0.509,-0.457L0.509,-0.502C0.509,-0.537 0.505,-0.568 0.497,-0.596C0.488,-0.623 0.475,-0.647 0.457,-0.667C0.438,-0.686 0.414,-0.701 0.385,-0.712C0.356,-0.723 0.32,-0.728 0.278,-0.728C0.23,-0.728 0.19,-0.721 0.157,-0.709C0.124,-0.696 0.098,-0.674 0.078,-0.645C0.058,-0.616 0.044,-0.577 0.036,-0.53C0.027,-0.483 0.023,-0.425 0.023,-0.357C0.023,-0.29 0.027,-0.234 0.034,-0.187C0.041,-0.139 0.053,-0.101 0.072,-0.072C0.091,-0.042 0.117,-0.021 0.15,-0.008C0.183,0.005 0.226,0.011 0.278,0.011C0.308,0.011 0.337,0.008 0.366,0.002C0.394,-0.005 0.419,-0.017 0.441,-0.036C0.463,-0.054 0.481,-0.079 0.494,-0.111C0.507,-0.143 0.514,-0.184 0.514,-0.234L0.514,-0.287L0.334,-0.287C0.334,-0.253 0.333,-0.225 0.332,-0.203C0.33,-0.18 0.327,-0.162 0.323,-0.149C0.319,-0.136 0.313,-0.126 0.306,-0.121C0.299,-0.115 0.289,-0.112 0.278,-0.112C0.264,-0.112 0.253,-0.116 0.245,-0.123C0.236,-0.13 0.23,-0.143 0.226,-0.162C0.221,-0.181 0.218,-0.206 0.217,-0.238C0.216,-0.269 0.215,-0.309 0.215,-0.357C0.215,-0.405 0.216,-0.445 0.217,-0.477C0.218,-0.508 0.221,-0.533 0.226,-0.552C0.23,-0.571 0.236,-0.584 0.245,-0.591C0.253,-0.598 0.264,-0.602 0.278,-0.602C0.296,-0.602 0.309,-0.595 0.317,-0.58C0.325,-0.565 0.329,-0.538 0.329,-0.497Z" style="fill:white;fill-rule:nonzero;"/>
            </g>
        </g>
    </g>
</svg>
